HIERARCHY
ROOT Hip
{
   OFFSET 0.00000 0.00000 0.00000
   CHANNELS 6 Xposition Yposition Zposition Zrotation Yrotation Xrotation
   JOINT Head
   {
      OFFSET 0.000000 28.507201 0.000000
      CHANNELS 3 Zrotation Yrotation Xrotation
      End Site
      {
         OFFSET 0.000000 16.984801 0.000000
      }
      JOINT LeftShoulder
      {
         OFFSET 9.425520 0.000000 0.000000
         CHANNELS 3 Zrotation Yrotation Xrotation
         JOINT LeftHand
         {
            OFFSET 0.000000 -13.773600 0.000000
            CHANNELS 3 Zrotation Yrotation Xrotation
            End Site
            {
               OFFSET 0.000000 -15.085200 0.000000
            }
         }
      }
      JOINT RightShoulder
      {
         OFFSET -10.045440 0.000000 0.000000
         CHANNELS 3 Zrotation Yrotation Xrotation
         JOINT RghtHand
         {
            OFFSET 0.000000 -16.503601 0.000000
            CHANNELS 3 Zrotation Yrotation Xrotation
            End Site
            {
               OFFSET 0.000000 -11.304960 0.000000
            }
         }
      }
   }
   JOINT LeftHip
   {
      OFFSET 9.973560 0.000000 0.000000
      CHANNELS 3 Zrotation Yrotation Xrotation
      JOINT LeftKnee
      {
         OFFSET 0.000000 -28.113598 0.000000
         CHANNELS 3 Zrotation Yrotation Xrotation
         JOINT LeftFoot
         {
            OFFSET 0.000000 -21.435601 0.000000
            CHANNELS 3 Zrotation Yrotation Xrotation
            End Site
            {
               OFFSET 0.000000 0.000000 13.969201
            }
         }
      }
   }
   JOINT RightHip
   {
      OFFSET -9.973560 0.000000 0.000000
      CHANNELS 3 Zrotation Yrotation Xrotation
      JOINT RightKnee
      {
         OFFSET 0.000000 -25.443601 0.000000
         CHANNELS 3 Zrotation Yrotation Xrotation
         JOINT RightFoot
         {
            OFFSET 0.000000 -21.820800 0.000000
            CHANNELS 3 Zrotation Yrotation Xrotation
            End Site
            {
               OFFSET 0.000000 0.000000 14.031600
            }
         }
      }
   }
}
MOTION
Frames: 29
Frame Time: 0.016670
8.042940 42.082519 -15.486978 153.843495 92.816322 159.287429 -0.088991 26.085285 -29.073117 4.803091 -11.861152 19.155448 -6.643976 -0.961982 21.133392 -29.107302 -14.778262 42.299915 -27.949450 6.051022 44.377344 -20.492891 -60.460233 5.006349 43.656646 -54.880498 13.864074 -16.795247 -53.076348 -37.961884 -3.407514 -55.009162 3.101155 21.300584 -39.417599 0.172233 -15.800702 -40.683475 -28.537934
8.012202 42.043275 -15.475665 188.093533 66.840996 193.940421 3.417530 1.068500 -29.627076 -2.989734 -20.328409 22.150727 -9.166037 -2.614130 19.390463 -36.935450 -17.220498 43.611741 -31.734749 6.543547 40.043852 -9.691398 -70.225034 -3.322125 42.644249 -62.152249 6.212798 -16.455348 -60.838503 -39.724834 -14.971618 -63.230080 22.406936 38.379741 -43.080400 -13.161479 -12.765895 -48.771608 -24.624384
7.993820 42.028665 -15.457530 187.976423 65.184614 193.697458 3.551879 0.279160 -29.508507 -7.613562 -29.656856 24.123113 -12.209064 -3.830525 17.180366 -41.322590 -21.990320 44.919525 -35.989547 7.263769 36.339431 -9.294708 -70.522332 -3.473441 42.861612 -62.264073 6.077141 -16.547986 -61.066870 -39.878114 -16.606647 -63.509892 24.913576 40.169808 -42.614377 -14.000660 -12.684653 -48.957273 -24.318991
7.993595 42.020950 -15.444031 187.984346 64.333272 193.499751 3.699787 0.110400 -29.125487 -12.571518 -37.826616 26.687479 -14.547712 -4.902882 14.908551 -45.741442 -26.381829 46.650465 -39.690011 7.423143 32.500687 -9.638073 -70.668081 -2.957743 42.891235 -62.263294 6.377575 -16.621318 -61.072649 -39.942601 -17.886081 -63.494866 26.672278 40.877641 -42.367824 -13.793628 -12.711473 -48.712615 -24.164069
7.971800 42.015414 -15.418653 187.958432 63.570620 193.304981 3.673089 -0.042623 -28.701746 -17.607596 -44.476600 29.903777 -16.222398 -5.773684 12.666206 -50.100831 -30.346486 48.730193 -42.829278 7.157590 28.764341 -9.782279 -70.802806 -2.664006 42.948083 -62.254210 6.541042 -16.703221 -61.090120 -40.015486 -19.243969 -63.587087 28.405831 41.636427 -42.115315 -13.550042 -12.749260 -48.483551 -24.049892
7.946370 42.009219 -15.387732 187.907069 62.942604 193.087276 3.696145 -0.175464 -28.269793 -22.528146 -49.446823 33.501538 -17.314717 -6.411584 10.615580 -54.334974 -33.866516 51.008010 -45.453977 6.611193 25.278020 -9.897119 -70.924964 -2.432628 42.930905 -62.275015 6.652305 -16.772026 -61.130808 -40.074465 -20.762385 -63.709033 30.197083 42.432393 -41.846797 -13.233906 -12.810415 -48.250031 -23.989718
7.916175 41.999521 -15.350801 187.870418 62.414207 192.863300 3.687410 -0.195909 -27.850320 -27.086082 -52.987774 37.116686 -17.991410 -6.811814 8.852881 -58.380202 -36.925854 53.447644 -47.481515 5.844801 22.117782 -10.061707 -71.007712 -2.189004 42.886454 -62.325271 6.831447 -16.831295 -61.180716 -40.117649 -22.445417 -63.846395 32.098273 43.311807 -41.549062 -12.886114 -12.899771 -48.010995 -23.980050
7.880257 41.988634 -15.293067 187.880909 61.916846 192.708856 3.591390 -0.157001 -27.457757 -31.176870 -55.487931 40.567598 -18.455094 -6.995723 7.382436 -62.165117 -39.528504 55.981839 -49.027993 4.975691 19.364734 -10.076322 -71.090931 -2.065121 42.857467 -62.402644 6.953645 -16.899917 -61.266551 -40.179144 -24.199483 -64.092316 34.027938 44.076536 -41.295604 -12.370756 -12.968898 -47.754337 -23.964378
7.862906 41.975216 -15.247770 187.847592 61.759267 192.481260 3.435922 0.232720 -26.990150 -34.824990 -57.210511 43.784610 -18.747411 -6.987184 6.085626 -65.631616 -41.792114 58.447957 -50.165970 4.072540 16.965059 -10.634836 -71.186042 -1.437871 42.800001 -62.373369 7.303935 -16.986523 -61.198092 -40.216205 -26.090580 -64.223866 35.954269 44.701525 -41.000068 -11.672076 -13.092080 -47.383870 -24.028322
7.796755 41.957616 -15.142394 187.949894 61.259844 192.485509 3.396174 0.228562 -26.718862 -38.026921 -58.329358 46.748287 -18.893739 -6.802150 4.925873 -68.751550 -43.627898 60.933784 -50.951750 3.178543 14.980707 -10.080251 -71.160476 -1.894931 42.762698 -62.622439 7.304220 -17.040958 -61.468943 -40.304236 -27.871359 -64.833009 37.920841 45.200119 -40.772357 -11.069171 -13.159816 -47.072704 -24.035338
7.757985 41.961636 -15.050350 188.012104 61.089745 192.410964 3.280919 0.577746 -26.376990 -40.923888 -59.041180 49.487336 -18.997237 -6.462392 3.929613 -71.485272 -45.249710 63.326557 -51.405838 2.301076 13.255022 -10.089637 -71.281562 -1.768011 42.770344 -62.676691 7.428711 -17.084298 -61.524807 -40.318702 -29.713461 -65.384335 39.828937 45.368418 -40.492257 -10.268209 -13.219626 -46.597494 -24.034063
7.709275 41.949767 -14.935058 188.123409 60.925779 192.402112 3.152450 0.891857 -26.066855 -43.498534 -59.528124 51.966463 -19.200471 -5.990077 3.045762 -73.931156 -46.634144 65.539797 -51.678116 1.483212 11.872564 -9.976054 -71.470150 -1.712014 42.856568 -62.718028 7.485180 -17.156073 -61.591422 -40.370547 -31.562004 -66.037015 41.758913 45.408259 -40.246162 -9.460756 -13.327571 -46.146489 -24.110884
7.643177 41.940460 -14.830677 188.150388 60.869567 192.303211 3.006191 1.219160 -25.828471 -45.817998 -59.748152 54.207595 -19.370138 -5.399176 2.306777 -76.124234 -47.891138 67.522028 -51.880525 0.727622 10.780908 -9.916974 -71.431450 -1.775185 42.736603 -62.917947 7.670933 -17.167262 -61.767409 -40.380816 -33.417356 -66.652312 43.524967 45.198510 -40.092411 -8.441864 -13.458545 -45.717550 -24.237191
7.572850 41.937093 -14.700832 188.262389 60.824071 192.298061 2.863951 1.450884 -25.567686 -47.875917 -59.764326 56.210729 -19.606589 -4.700793 1.558900 -78.029317 -48.977012 69.364246 -51.972409 0.027857 9.958227 -9.652228 -71.586878 -1.921415 42.758169 -63.031445 7.629256 -17.177183 -61.908261 -40.383418 -35.202856 -67.356594 45.270398 44.855471 -39.956204 -7.465267 -13.572915 -45.314811 -24.349630
7.507321 41.942248 -14.583622 188.300625 60.854875 192.167304 2.554874 1.783986 -25.244789 -49.750791 -59.663478 57.972276 -19.816640 -3.896776 0.925177 -79.737042 -49.850767 70.988171 -51.961754 -0.629513 9.294911 -9.611786 -71.600224 -1.926993 42.628409 -63.181012 7.716441 -17.160452 -62.044236 -40.355175 -37.038077 -67.938191 46.991633 44.462691 -39.832611 -6.481109 -13.672345 -44.950196 -24.454791
7.433428 41.943192 -14.447731 188.387901 60.808853 192.129205 2.313544 2.048034 -25.008191 -51.425993 -59.519744 59.514484 -20.160422 -3.021151 0.383251 -81.295705 -50.538697 72.372555 -51.879552 -1.243079 8.859383 -9.277622 -71.674216 -2.152039 42.616019 -63.298437 7.659461 -17.169924 -62.180738 -40.359646 -38.839768 -68.546030 48.738276 44.107217 -39.707363 -5.548281 -13.780563 -44.627319 -24.574203
7.351699 41.943058 -14.303220 188.445971 60.731146 192.054988 2.160830 2.317579 -24.748847 -52.943665 -59.378174 60.817507 -20.618471 -2.078241 -0.140940 -82.676728 -51.147096 73.589790 -51.873241 -1.812868 8.593098 -8.868525 -71.620722 -2.486545 42.535181 -63.477374 7.643074 -17.158938 -62.361697 -40.351347 -40.637717 -69.107144 50.496367 43.775666 -39.595232 -4.672722 -13.876964 -44.355358 -24.681913
7.275733 41.936430 -14.163568 188.428390 60.608046 191.874111 2.039325 2.562265 -24.397029 -54.324333 -59.274813 61.914722 -21.166251 -1.073220 -0.598492 -83.875003 -51.755653 74.640956 -51.959510 -2.343851 8.416958 -8.603164 -71.619724 -2.662932 42.410396 -63.619777 7.610762 -17.185196 -62.504714 -40.375577 -42.475755 -69.512570 52.279760 43.550304 -39.519857 -3.870562 -13.974805 -44.169027 -24.804442
7.200014 41.929268 -14.027772 188.361413 60.474167 191.619509 2.008720 2.787200 -24.056725 -55.569839 -59.192304 62.837617 -21.825432 -0.009086 -1.110153 -84.903705 -52.359667 75.558025 -52.110775 -2.848656 8.292864 -8.327127 -71.614916 -2.866411 42.277081 -63.736156 7.537863 -17.211293 -62.623457 -40.394733 -44.335004 -69.826363 54.069963 43.403376 -39.449749 -3.113233 -14.069778 -44.019729 -24.924547
7.114815 41.906866 -13.886785 188.240369 60.229735 191.329773 1.976155 2.935540 -23.685510 -56.676022 -59.151740 63.620671 -22.579236 1.119438 -1.689109 -85.792579 -52.987306 76.392900 -52.419957 -3.326166 8.281053 -7.920844 -71.605012 -3.208489 42.143322 -63.869468 7.395375 -17.250570 -62.770934 -40.434710 -46.199297 -70.052572 55.909142 43.452823 -39.404703 -2.507017 -14.172027 -43.943682 -25.062787
7.035736 41.879320 -13.745543 188.077209 60.006060 190.984302 1.990330 3.114966 -23.346555 -57.674841 -59.059054 64.283002 -23.391544 2.320208 -2.337724 -86.561467 -53.539315 77.126489 -52.729299 -3.795048 8.316325 -7.588261 -71.619267 -3.475240 41.995159 -64.005832 7.272873 -17.316365 -62.917100 -40.505221 -48.053717 -70.195999 57.757787 43.618244 -39.321273 -1.989533 -14.289861 -43.854418 -25.218247
6.954294 41.851167 -13.605774 187.903927 59.782918 190.632328 2.017069 3.283915 -22.996035 -58.546551 -59.018087 64.878683 -24.190746 3.607871 -2.984635 -87.209276 -54.063741 77.771061 -53.158369 -4.243655 8.367586 -7.259412 -71.601303 -3.756528 41.826128 -64.136207 7.142880 -17.372530 -63.055248 -40.562683 -49.925394 -70.262224 59.646123 43.965719 -39.227866 -1.622047 -14.386299 -43.785447 -25.343436
6.871677 41.816267 -13.463102 187.710004 59.581953 190.248922 2.038302 3.467312 -22.666225 -59.280598 -58.973971 65.447071 -24.936233 5.000890 -3.675811 -87.790423 -54.591127 78.406460 -53.874377 -4.664905 8.576826 -6.988311 -71.618550 -3.991777 41.693175 -64.244589 7.033307 -17.429123 -63.174250 -40.616864 -51.787259 -70.294531 61.535811 44.347039 -39.115855 -1.292678 -14.516905 -43.711244 -25.514182
6.797616 41.786379 -13.304270 187.599096 59.393734 189.936742 2.035485 3.687598 -22.315784 -59.921741 -58.953931 65.975311 -25.652640 6.507120 -4.376461 -88.311388 -55.070084 79.001643 -54.874068 -5.051659 8.865354 -6.704269 -71.726931 -4.131869 41.673470 -64.265441 6.879084 -17.513580 -63.226986 -40.690736 -53.600152 -70.318368 63.464192 44.739754 -38.963193 -1.022468 -14.613796 -43.604877 -25.626960
6.713310 41.746516 -13.146754 187.417099 59.223887 189.593771 2.031661 3.905633 -21.949463 -60.519882 -58.932518 66.435706 -26.216616 8.144886 -5.048034 -88.836316 -55.579626 79.518565 -56.376696 -5.369797 9.222915 -6.407144 -71.826440 -4.336340 41.665086 -64.310684 6.734744 -17.601454 -63.305554 -40.776496 -55.408810 -70.336264 65.335520 45.154517 -38.804811 -0.732761 -14.744422 -43.500737 -25.789198
6.624643 41.709098 -12.982158 187.244117 59.084060 189.278339 2.022043 4.196475 -21.705402 -60.994539 -58.984783 66.919379 -26.956518 9.864146 -5.786943 -89.294717 -56.011666 80.011527 -58.447759 -5.591330 9.505907 -6.020503 -71.849663 -4.651293 41.666452 -64.350135 6.573097 -17.666044 -63.381328 -40.833784 -57.177757 -70.381097 67.142570 45.490610 -38.655838 -0.390077 -14.878100 -43.401938 -25.954430
6.528602 41.664152 -12.813147 187.058418 58.952230 188.990924 1.899621 4.572751 -21.528485 -61.381544 -59.034261 67.411256 -27.760792 11.688907 -6.534156 -89.619363 -56.410727 80.477312 -61.507971 -5.628640 9.484375 -5.499270 -71.768500 -5.138533 41.655725 -64.466857 6.411989 -17.727969 -63.535649 -40.910968 -58.877112 -70.468721 68.878196 45.780019 -38.515645 -0.034236 -15.041805 -43.312927 -26.164769
6.435529 41.628408 -12.638234 186.918003 58.818188 188.751158 1.808279 5.031536 -21.429923 -61.737527 -59.143947 67.876439 -28.649666 13.627801 -7.233692 -89.989737 -56.796441 80.962556 -65.448293 -5.492737 9.573969 -4.883250 -71.748590 -5.650130 41.756768 -64.470900 6.119312 -17.786210 -63.617345 -40.970446 -60.503742 -70.620386 70.550308 45.881065 -38.387767 0.351106 -15.182582 -43.223561 -26.336337
6.340160 41.592736 -12.456125 186.753245 58.726848 188.532906 1.715916 5.581066 -21.357809 -62.010837 -59.365218 68.346288 -29.736615 15.651042 -8.026925 -90.214204 -57.172297 81.391061 -70.161875 -5.187460 9.328045 -4.155480 -71.754177 -6.229404 41.970601 -64.391096 5.710566 -17.861320 -63.654918 -41.044885 -62.076304 -70.850925 72.125759 45.799314 -38.278815 0.808917 -15.342290 -43.145123 -26.536992
